<?xml version="1.0" standalone="no"?>
<!DOCTYPE svg PUBLIC "-//W3C//DTD SVG 20010904//EN"
 "http://www.w3.org/TR/2001/REC-SVG-20010904/DTD/svg10.dtd">
<svg version="1.0" xmlns="http://www.w3.org/2000/svg"
 width="100.000000pt" height="100.000000pt" viewBox="0 0 260.000000 180.000000"
 preserveAspectRatio="xMidYMid meet">

<g transform="translate(0.000000,180.000000) scale(0.100000,-0.100000)"
fill="#000000" stroke="none">
<path d="M14 1767 c-2 -7 -3 -67 -2 -133 l3 -119 138 -3 137 -3 0 26 c0 39 25
92 53 110 29 18 95 22 123 7 10 -6 64 -47 119 -92 55 -45 131 -106 168 -137
94 -76 112 -132 60 -193 -24 -29 -279 -239 -343 -283 -65 -45 -166 6 -177 91
l-6 42 -138 0 -139 0 0 -120 0 -120 745 0 745 0 0 470 0 470 -740 0 c-601 0
-742 -2 -746 -13z"/>
<path d="M1513 1508 c0 -145 -1 -359 -2 -475 l-1 -213 -751 0 c-497 0 -748 -3
-744 -10 4 -7 268 -10 761 -10 l754 0 0 485 c0 267 -4 485 -8 485 -5 0 -8
-118 -9 -262z"/>
<path d="M349 1622 c-24 -21 -32 -38 -36 -75 l-6 -47 -150 0 c-103 0 -148 -3
-141 -10 7 -7 67 -10 160 -8 l149 3 6 49 c7 61 42 96 97 96 28 0 33 3 22 10
-28 18 -69 11 -101 -18z"/>
<path d="M1630 940 l0 -580 33 0 c31 0 32 1 49 71 28 114 110 206 219 244 55
20 176 19 235 -1 118 -40 213 -160 226 -284 3 -24 5 -25 88 -25 l85 0 3 242 2
242 -42 60 c-93 130 -195 271 -262 362 -39 52 -96 130 -126 172 l-55 76 -227
1 -228 0 0 -580z m449 423 c22 -32 76 -107 120 -168 175 -239 201 -277 201
-291 0 -12 -49 -14 -332 -12 l-333 3 -3 250 c-1 137 0 255 3 262 3 10 42 13
154 13 l150 0 40 -57z m-142 -565 c26 -24 30 -65 9 -94 -12 -16 -29 -20 -100
-23 -80 -3 -86 -2 -110 23 -31 31 -33 55 -5 90 19 24 26 26 102 26 69 0 84 -3
104 -22z"/>
<path d="M1750 1160 c0 -165 3 -250 10 -250 7 0 10 74 10 218 -1 119 -1 227
-1 240 1 22 3 22 131 22 80 0 130 4 130 10 0 6 -53 10 -140 10 l-140 0 0 -250z"/>
<path d="M1742 788 c-7 -7 -12 -26 -12 -42 l0 -31 20 33 c20 32 20 32 100 32
52 0 79 4 75 10 -9 14 -168 13 -183 -2z"/>
<path d="M428 1443 l-3 -58 -207 -3 -208 -2 0 -80 0 -80 208 -2 207 -3 3 -57
c2 -32 6 -58 10 -58 15 0 242 189 242 201 0 5 -28 30 -62 57 -34 26 -86 68
-117 94 -31 26 -59 48 -63 48 -4 0 -8 -26 -10 -57z"/>
<path d="M572 1181 c-158 -128 -157 -127 -144 -135 9 -6 293 217 300 235 10
27 -37 -4 -156 -100z"/>
<path d="M15 1190 c8 -14 395 -14 395 0 0 6 -74 10 -201 10 -131 0 -198 -3
-194 -10z"/>
<path d="M310 1055 c0 -16 5 -37 10 -45 7 -12 10 -8 10 15 0 17 -5 37 -10 45
-7 12 -10 8 -10 -15z"/>
<path d="M2580 606 l0 -256 -96 0 c-61 0 -93 -4 -89 -10 3 -6 50 -10 106 -10
l99 0 0 259 c0 163 -4 262 -10 266 -7 4 -10 -82 -10 -249z"/>
<path d="M17 703 c-4 -3 -7 -82 -7 -175 l0 -168 55 0 55 0 0 34 c0 49 64 169
112 211 76 65 121 80 233 80 86 0 107 -3 150 -25 99 -48 178 -154 192 -257 l6
-43 344 0 343 0 -2 173 -3 172 -736 3 c-404 1 -739 -1 -742 -5z"/>
<path d="M1510 520 l0 -180 -352 0 c-211 0 -347 -4 -339 -9 8 -5 116 -8 240
-6 124 2 281 4 349 4 l122 1 0 185 c0 117 -4 185 -10 185 -6 0 -10 -67 -10
-180z"/>
<path d="M380 665 c-77 -22 -145 -70 -190 -137 -33 -50 -60 -127 -60 -173 0
-12 -15 -15 -62 -15 -48 -1 -59 -3 -45 -11 9 -5 40 -9 68 -7 l51 3 17 65 c30
120 85 189 191 239 45 22 69 26 135 25 51 0 94 -6 118 -17 21 -9 35 -12 32 -8
-8 14 -96 41 -150 46 -29 3 -73 -2 -105 -10z"/>
<path d="M1967 670 c-59 -15 -109 -45 -153 -92 -63 -67 -77 -96 -99 -200 -5
-25 -10 -28 -45 -28 -22 0 -40 -4 -40 -10 0 -5 22 -10 49 -10 l49 0 7 43 c10
59 39 123 80 173 74 91 237 138 345 100 57 -20 63 -14 8 9 -51 21 -148 28
-201 15z"/>
<path d="M405 550 c-47 -14 -115 -78 -136 -128 -23 -54 -24 -84 -3 -147 36
-104 147 -164 252 -136 58 15 125 78 148 138 36 94 -13 210 -109 259 -36 19
-113 26 -152 14z"/>
<path d="M1995 553 c-26 -7 -64 -31 -98 -62 -82 -74 -86 -198 -9 -283 73 -81
159 -98 253 -51 149 76 160 278 18 365 -45 28 -122 43 -164 31z"/>
<path d="M2256 437 c3 -10 9 -15 12 -12 3 3 0 11 -7 18 -10 9 -11 8 -5 -6z"/>
<path d="M685 347 c0 -74 -3 -88 -28 -125 -41 -63 -97 -95 -173 -100 -35 -2
-77 1 -94 6 -41 15 -38 4 5 -14 69 -29 169 -15 234 34 66 49 101 179 68 255
-11 25 -12 19 -12 -56z"/>
<path d="M2274 348 c-1 -99 -52 -177 -141 -215 -43 -18 -137 -17 -173 2 -17 9
-30 13 -30 10 0 -2 19 -14 42 -26 60 -30 159 -24 217 14 64 43 95 97 99 177 2
38 0 75 -5 84 -6 12 -9 -3 -9 -46z"/>
</g>
</svg>
