<?xml version="1.0" standalone="no"?>
<!DOCTYPE svg PUBLIC "-//W3C//DTD SVG 20010904//EN"
 "http://www.w3.org/TR/2001/REC-SVG-20010904/DTD/svg10.dtd">
<svg version="1.0" xmlns="http://www.w3.org/2000/svg"
 width="100.000000pt" height="100.000000pt" viewBox="0 0 200.000000 200.000000"
 preserveAspectRatio="xMidYMid meet">

<g transform="translate(0.000000,200.000000) scale(0.100000,-0.100000)"
fill="#000000" stroke="none">
<path d="M622 1857 l-373 -142 3 -500 c3 -494 3 -501 26 -556 72 -179 230
-331 600 -578 l123 -82 157 107 c351 239 494 378 564 552 23 57 23 61 26 557
l3 500 -368 139 c-202 77 -372 141 -378 142 -5 2 -178 -61 -383 -139z m723
-41 l350 -134 3 -459 c2 -433 1 -462 -18 -523 -49 -163 -196 -310 -552 -554
l-128 -87 -142 97 c-343 234 -489 381 -538 543 -19 63 -20 90 -18 524 l3 459
345 133 c190 73 345 133 345 134 0 0 158 -59 350 -133z"/>
<path d="M667 1767 l-318 -122 3 -460 3 -460 33 -67 c60 -124 203 -257 480
-447 l132 -91 133 91 c276 190 414 319 477 445 l35 69 3 460 3 460 -323 123
c-178 67 -327 122 -333 121 -5 0 -153 -55 -328 -122z m528 -757 l-280 -280
-160 160 -160 160 50 50 c27 27 54 50 59 50 6 0 56 -45 111 -100 l100 -100
225 225 225 225 55 -55 55 -55 -280 -280z"/>
</g>
</svg>
