<?xml version="1.0" standalone="no"?>
<!DOCTYPE svg PUBLIC "-//W3C//DTD SVG 20010904//EN"
 "http://www.w3.org/TR/2001/REC-SVG-20010904/DTD/svg10.dtd">
<svg version="1.0" xmlns="http://www.w3.org/2000/svg"
 width="100.000000pt" height="100.000000pt" viewBox="0 0 300.000000 300.000000"
 preserveAspectRatio="xMidYMid meet">
<metadata>
Created by potrace 1.16, written by Peter Selinger 2001-2019
</metadata>
<g transform="translate(0.000000,300.000000) scale(0.100000,-0.100000)"
fill="#000000" stroke="none">
<path d="M1325 2974 c-222 -32 -424 -103 -599 -208 -232 -141 -452 -385 -566
-629 -226 -481 -186 -1018 107 -1461 85 -129 273 -319 394 -399 168 -111 339
-185 529 -229 82 -19 125 -22 310 -22 204 0 221 1 330 28 304 76 533 207 742
424 194 203 323 445 383 720 78 364 5 766 -198 1092 -163 260 -433 482 -722
593 -174 67 -288 89 -495 92 -102 2 -198 1 -215 -1z m313 -134 c302 -33 580
-161 795 -369 549 -529 557 -1386 18 -1922 -201 -200 -436 -324 -715 -377
-121 -22 -348 -22 -476 2 -440 79 -831 392 -1000 798 -121 291 -141 565 -64
869 42 171 111 311 226 466 282 378 749 583 1216 533z"/>
<path d="M1318 2715 c-487 -76 -882 -432 -1009 -910 -30 -112 -32 -131 -33
-295 -1 -192 9 -259 66 -420 58 -165 147 -308 273 -439 235 -245 555 -381 896
-381 554 0 1037 380 1182 930 28 107 30 128 31 295 1 167 -1 188 -28 290 -65
251 -177 441 -362 614 -273 255 -651 372 -1016 316z m559 -659 c123 -123 227
-236 233 -251 6 -16 10 -211 10 -515 0 -475 -1 -490 -20 -500 -13 -7 -202 -9
-572 -8 l-553 3 -3 738 -2 738 22 9 c13 5 167 9 343 9 l319 1 223 -224z"/>
<path d="M1031 2207 c-8 -10 -11 -196 -11 -676 0 -363 3 -668 6 -676 5 -13 71
-15 514 -15 454 0 509 2 514 16 3 9 6 218 6 465 l0 449 -208 0 c-189 0 -210 2
-225 18 -14 15 -17 50 -19 223 l-3 204 -281 3 c-228 2 -283 0 -293 -11z m777
-653 c18 -5 22 -13 20 -33 l-3 -26 -292 -3 c-289 -2 -292 -2 -298 19 -9 26 1
36 40 42 48 7 508 7 533 1z m17 -254 l0 -25 -293 -3 c-254 -2 -293 0 -298 13
-4 8 -4 22 0 30 5 13 44 15 298 13 l293 -3 0 -25z m-160 -210 c15 -16 15 -22
5 -35 -10 -12 -46 -15 -210 -15 -109 0 -205 3 -214 6 -21 8 -20 40 2 53 10 6
97 11 208 11 178 0 192 -1 209 -20z"/>
<path d="M1670 2012 c0 -124 3 -162 14 -171 15 -13 312 -15 320 -2 5 7 -304
323 -322 329 -9 3 -12 -40 -12 -156z"/>
</g>
</svg>
