<?xml version="1.0" standalone="no"?>
<!DOCTYPE svg PUBLIC "-//W3C//DTD SVG 20010904//EN"
 "http://www.w3.org/TR/2001/REC-SVG-20010904/DTD/svg10.dtd">
<svg version="1.0" xmlns="http://www.w3.org/2000/svg"
 width="100.000000pt" height="100.000000pt" viewBox="0 0 1024.000000 1024.000000"
 preserveAspectRatio="xMidYMid meet">

<g transform="translate(0.000000,1024.000000) scale(0.100000,-0.100000)"
fill="#000000" stroke="none">
<path d="M4658 9821 c-692 -83 -1198 -237 -1773 -540 -754 -397 -1444 -1069
-1876 -1826 -136 -238 -286 -577 -379 -855 -268 -805 -303 -1777 -95 -2625
248 -1010 835 -1907 1693 -2586 607 -481 1377 -813 2163 -933 284 -43 398 -51
719 -51 308 0 434 9 690 46 1371 199 2597 1001 3329 2179 407 653 642 1380
702 2170 13 174 7 623 -11 785 -66 601 -211 1103 -470 1630 -233 474 -514 861
-910 1255 -711 708 -1562 1146 -2540 1309 -236 39 -401 51 -780 56 -255 4
-331 1 -462 -14z m654 -1491 c205 -14 301 -26 413 -55 211 -53 373 -141 500
-270 171 -173 204 -284 205 -686 l0 -147 623 -5 c686 -5 678 -5 822 -71 198
-91 361 -250 439 -428 63 -143 79 -359 74 -1023 -2 -360 -6 -475 -16 -493 -18
-30 -96 -68 -302 -145 -492 -183 -958 -310 -1360 -372 -264 -41 -445 -58 -841
-81 l-106 -6 -6 -165 c-4 -92 -7 -216 -7 -277 0 -155 -16 -289 -39 -335 -23
-44 -75 -92 -130 -121 -68 -34 -161 -43 -471 -43 -322 0 -394 8 -473 51 -64
34 -131 110 -147 164 -8 28 -14 162 -17 391 -3 191 -7 347 -8 347 -25 0 -440
44 -520 56 -747 104 -1973 434 -2087 561 -16 17 -18 67 -20 603 -3 627 0 680
47 829 37 117 88 194 205 312 95 96 115 111 210 157 168 83 174 83 888 89
l612 5 0 250 0 250 50 96 c92 179 183 277 342 373 174 105 375 159 708 192 77
8 267 6 412 -3z m-3250 -3556 c53 -28 59 -49 68 -241 5 -98 11 -389 15 -648 8
-605 14 -698 52 -767 41 -77 154 -185 247 -236 l78 -43 2566 4 c1824 3 2583 7
2621 15 66 14 146 65 223 143 83 85 107 131 118 230 5 46 14 388 19 759 11
741 10 737 70 777 65 44 179 23 212 -38 20 -38 31 -425 26 -969 -5 -576 -5
-582 -77 -737 -88 -190 -217 -320 -401 -407 -163 -77 97 -70 -2674 -74 -1576
-2 -2533 1 -2627 7 -124 8 -158 15 -222 40 -220 85 -388 246 -474 454 -63 151
-64 162 -69 832 -5 638 2 815 32 861 37 58 126 75 197 38z"/>
<path d="M4830 8024 c-232 -22 -495 -117 -611 -221 -86 -78 -101 -114 -110
-267 -4 -72 -8 -184 -8 -248 l-1 -118 1015 0 1015 0 0 133 c0 184 -17 341 -43
397 -67 145 -301 273 -565 310 -78 11 -608 21 -692 14z"/>
<path d="M2424 6801 c-108 -64 -170 -123 -216 -208 -57 -104 -59 -123 -65
-694 -4 -350 -3 -528 4 -532 15 -9 370 -118 558 -171 565 -159 1151 -275 1618
-319 157 -15 140 -25 152 83 12 109 66 188 160 238 l50 27 433 3 433 3 59 -46
c99 -79 130 -138 130 -254 l0 -64 203 6 c387 12 879 83 1237 178 225 60 743
227 864 279 l46 19 0 58 c0 32 -5 283 -11 558 l-11 500 -50 98 c-60 118 -143
207 -234 251 -58 29 -63 30 -279 37 -121 4 -1291 8 -2600 8 l-2380 1 -101 -59z"/>
<path d="M4767 4933 c-4 -3 -7 -233 -7 -510 l0 -503 340 0 340 0 0 510 0 510
-333 0 c-184 0 -337 -3 -340 -7z"/>
</g>
</svg>
